<?xml version="1.0" encoding="UTF-8"?>
<svg version="1.1" xmlns="http://www.w3.org/2000/svg" width="256" height="223">
<path d="M0 0 C9.36198871 6.58872035 14.55490147 14.9044102 17.359375 26.03125 C18.92833669 36.19301353 15.58726993 44.87525328 10.7578125 53.64453125 C14.0578125 54.63453125 17.3578125 55.62453125 20.7578125 56.64453125 C20.89316406 55.7009375 21.02851563 54.75734375 21.16796875 53.78515625 C23.2834697 41.16815658 27.34423302 31.02819213 38.109375 23.26953125 C48.22598804 17.06228785 59.40691086 15.82288849 70.9453125 18.33984375 C81.84583427 21.94307178 89.71771827 29.0291324 95.08203125 39.140625 C99.08848243 48.60147287 99.3483172 59.10259709 95.8828125 68.76953125 C95.19559804 70.40357452 94.48813427 72.02929405 93.7578125 73.64453125 C93.0855541 75.30895033 92.4173024 76.97501177 91.7578125 78.64453125 C92.9334375 79.69640625 92.9334375 79.69640625 94.1328125 80.76953125 C99.67845047 86.84332522 99.02724987 93.59840054 98.953125 101.38671875 C98.9502951 102.51022736 98.94746521 103.63373596 98.94454956 104.79129028 C98.93338553 108.36748052 98.90828751 111.94341715 98.8828125 115.51953125 C98.87277783 117.94921512 98.86365283 120.37890294 98.85546875 122.80859375 C98.83345854 128.75399227 98.80001839 134.69924364 98.7578125 140.64453125 C100.16933594 140.19400391 100.16933594 140.19400391 101.609375 139.734375 C103.47722656 139.16396484 103.47722656 139.16396484 105.3828125 138.58203125 C106.61257812 138.19917969 107.84234375 137.81632813 109.109375 137.421875 C112.83721971 136.62761258 115.12626023 136.54228591 118.7578125 137.64453125 C121.28143311 141.42996216 121.08124648 144.50135157 121.09375 148.890625 C121.1037352 150.10190819 121.1037352 150.10190819 121.11392212 151.33766174 C121.12404266 153.04482751 121.12873932 154.75203278 121.12841797 156.45922852 C121.13279098 159.06918578 121.16911377 161.67745136 121.20703125 164.28710938 C121.21289963 165.9466088 121.21686888 167.60611626 121.21875 169.265625 C121.24030655 170.43453529 121.24030655 170.43453529 121.26229858 171.62705994 C121.2320521 175.21923885 121.0528754 177.24977668 118.87255859 180.16674805 C116.7578125 181.64453125 116.7578125 181.64453125 114.4609375 181.66796875 C113.24664062 181.34699219 113.24664062 181.34699219 112.0078125 181.01953125 C111.13898438 180.80296875 110.27015625 180.58640625 109.375 180.36328125 C108.07949219 180.0075 108.07949219 180.0075 106.7578125 179.64453125 C105.21654659 179.26788749 103.67492091 178.89271051 102.1328125 178.51953125 C101.0190625 178.23078125 99.9053125 177.94203125 98.7578125 177.64453125 C98.72042969 178.23621094 98.68304688 178.82789063 98.64453125 179.4375 C98.15532543 185.31756216 97.37895424 189.35103222 92.7578125 193.39453125 C88.65206183 195.96062542 84.74334486 195.79042758 80.07243347 195.78497314 C79.28189443 195.78794427 78.4913554 195.79091539 77.67686063 195.79397655 C75.01918226 195.80267091 72.3615489 195.80417241 69.70385742 195.80566406 C67.8018433 195.81029171 65.8998301 195.81531629 63.99781799 195.82070923 C58.82420441 195.8338402 53.6506038 195.84027952 48.47697616 195.84471989 C45.24581651 195.84764942 42.01466043 195.85175399 38.78350258 195.85622406 C28.67716049 195.86990067 18.57082652 195.87956659 8.46447581 195.88342595 C-3.20781978 195.8879076 -14.87999832 195.9054598 -26.55225831 195.93442655 C-35.5705994 195.95603145 -44.58890753 195.96612959 -53.60727423 195.96746707 C-58.9953932 195.96851593 -64.38340216 195.97444099 -69.77149391 195.99228668 C-74.8399017 196.00874678 -79.90811655 196.01093287 -84.97654152 196.00214767 C-86.83653276 196.0013762 -88.69653428 196.0057345 -90.55649948 196.01560593 C-93.09651592 196.02829572 -95.63584595 196.02246494 -98.17585754 196.01202393 C-99.27883839 196.02410853 -99.27883839 196.02410853 -100.40410167 196.03643727 C-105.08484883 195.99146494 -108.27007089 195.1184074 -112.2421875 192.64453125 C-116.08899651 188.21481773 -116.82493414 184.50268469 -116.75976562 178.80664062 C-116.77027954 177.66398491 -116.77027954 177.66398491 -116.78100586 176.49824524 C-116.79852868 173.99454678 -116.78698421 171.49199005 -116.7734375 168.98828125 C-116.77613408 167.24002873 -116.78001788 165.49177768 -116.78503418 163.74353027 C-116.79092146 160.08522213 -116.7823913 156.42730549 -116.76367188 152.76904297 C-116.74088257 148.0881814 -116.75400982 143.4082373 -116.77796173 138.72740936 C-116.79244066 135.11905041 -116.78780416 131.5109077 -116.77745056 127.90254211 C-116.77478906 126.17702627 -116.77803272 124.45149056 -116.78736877 122.72599792 C-116.79756927 120.31094633 -116.78198623 117.89736446 -116.75976562 115.48242188 C-116.76786255 114.77471146 -116.77595947 114.06700104 -116.78430176 113.33784485 C-116.69913947 108.32220408 -115.52150002 105.4207559 -112.2421875 101.64453125 C-107.34992067 98.27780013 -102.9351028 98.20224727 -97.20751953 98.2121582 C-96.31906845 98.20196655 -95.43061737 98.1917749 -94.51524353 98.18127441 C-91.59343105 98.15120238 -88.67194675 98.14188728 -85.75 98.1328125 C-83.71832189 98.11596153 -81.68665419 98.09781073 -79.65499878 98.07841492 C-74.31871795 98.03095429 -68.9824793 98.00111935 -63.64605713 97.97497559 C-58.19624505 97.94515029 -52.7465782 97.89862668 -47.296875 97.85351562 C-36.6120552 97.76752723 -25.92720547 97.70016199 -15.2421875 97.64453125 C-22.84218406 95.43503314 -30.44239038 93.2262584 -38.04283524 91.01830292 C-41.57552707 89.9920215 -45.10815734 88.96552935 -48.640625 87.93847656 C-52.05916588 86.94456418 -55.477878 85.95124282 -58.89671326 84.95834351 C-60.26326805 84.56139658 -61.62977395 84.1642813 -62.99623108 83.76699829 C-70.45607239 81.5984882 -77.91993477 79.44619023 -85.39648438 77.3359375 C-86.69765377 76.96781975 -87.99882161 76.59969649 -89.29998779 76.23156738 C-91.7326245 75.54467442 -94.16621397 74.8611438 -96.60089111 74.18151855 C-98.22302521 73.72331726 -98.22302521 73.72331726 -99.87792969 73.25585938 C-100.82158386 72.99164185 -101.76523804 72.72742432 -102.73748779 72.4552002 C-105.05592033 71.70481832 -107.10193979 70.80069659 -109.2421875 69.64453125 C-109.2421875 68.98453125 -109.2421875 68.32453125 -109.2421875 67.64453125 C-109.9021875 67.64453125 -110.5621875 67.64453125 -111.2421875 67.64453125 C-116.61189426 60.32220385 -116.48894985 54.17670749 -116.53735352 45.44824219 C-116.54888181 43.99924969 -116.56934751 42.55029994 -116.59887695 41.1015625 C-116.64162886 39.00361393 -116.65773031 36.90692423 -116.66796875 34.80859375 C-116.68255127 33.5551416 -116.69713379 32.30168945 -116.7121582 31.01025391 C-116.16064882 27.06058724 -115.02146224 25.44547107 -112.2421875 22.64453125 C-106.36014946 19.70351223 -99.34110526 22.48830113 -93.44140625 24.234375 C-92.52382034 24.49835587 -91.60623444 24.76233673 -90.6608429 25.03431702 C-87.7478716 25.8749053 -84.83889146 26.72850745 -81.9296875 27.58203125 C-79.95531125 28.15250017 -77.98070395 28.72217008 -76.00585938 29.29101562 C-68.80495603 31.37515311 -68.80495603 31.37515311 -65.21362305 32.42944336 C-64.1327668 32.74588051 -64.1327668 32.74588051 -63.03007507 33.06871033 C-61.2421875 33.64453125 -61.2421875 33.64453125 -59.2421875 34.64453125 C-59.20351562 33.64486328 -59.20351562 33.64486328 -59.1640625 32.625 C-58.39052306 20.05498414 -54.75661013 11.13318019 -45.2421875 2.64453125 C-31.73425946 -7.3010926 -14.55476424 -8.79878605 0 0 Z " fill="#030303" transform="translate(129.2421875,13.35546875)"/>
<path d="M0 0 C7.25030489 7.5798642 10.17092119 15.07228161 10.1015625 25.44140625 C9.38238096 32.4654126 5.63663404 38.84028614 0.75 43.875 C-1.20851344 45.26855764 -3.20127113 46.61782547 -5.25 47.875 C1.83357707 50.71394334 9.10991934 52.83121497 16.43334961 54.9465332 C18.576285 55.56648802 20.71687996 56.19410294 22.85742188 56.82226562 C24.22382452 57.21921092 25.59035645 57.61571149 26.95703125 58.01171875 C28.1891333 58.36967529 29.42123535 58.72763184 30.69067383 59.09643555 C33.70841513 59.99831389 33.70841513 59.99831389 36.75 59.875 C36.255 58.823125 35.76 57.77125 35.25 56.6875 C32.51456507 49.35392922 32.32375306 40.00147209 35.58203125 32.78125 C40.65329168 24.50441023 46.60773662 19.92242113 55.75 16.875 C64.59135634 16.00698465 71.344212 16.81299135 78.75 21.875 C81.625 24.375 81.625 24.375 83.75 26.875 C84.471875 27.720625 85.19375 28.56625 85.9375 29.4375 C90.85254923 36.04739379 91.32706515 43.51214119 90.45703125 51.59765625 C88.71670471 58.96776393 84.02127954 63.67056639 78.75 68.875 C78.1621875 69.46410156 77.574375 70.05320312 76.96875 70.66015625 C76.5665625 71.06105469 76.164375 71.46195312 75.75 71.875 C76.49765625 72.04515625 77.2453125 72.2153125 78.015625 72.390625 C79.49289063 72.75414063 79.49289063 72.75414063 81 73.125 C81.97453125 73.35703125 82.9490625 73.5890625 83.953125 73.828125 C86.75 74.875 86.75 74.875 90.75 78.875 C90.75 94.385 90.75 109.895 90.75 125.875 C26.07 125.875 -38.61 125.875 -105.25 125.875 C-105.25 100.875 -105.25 100.875 -103.25 98.875 C-100.33526981 98.6675787 -97.5135298 98.58452708 -94.59692383 98.58789062 C-93.70079376 98.58105759 -92.8046637 98.57422455 -91.88137817 98.56718445 C-89.93070305 98.55357133 -87.97999196 98.54453422 -86.02927589 98.53947449 C-82.93961219 98.53120337 -79.85024664 98.51071246 -76.76066589 98.48693848 C-70.19465476 98.43862484 -63.62861367 98.40577342 -57.0625 98.375 C-49.4713032 98.33931821 -41.8802504 98.29729484 -34.28919029 98.23905945 C-31.24980618 98.21903186 -28.21053306 98.21067749 -25.1710968 98.20275879 C-23.29741011 98.18977928 -21.42372706 98.17625794 -19.55004883 98.16210938 C-18.70873917 98.16309128 -17.8674295 98.16407318 -17.00062561 98.16508484 C-11.4595228 98.10700118 -5.6181195 98.01394665 -1.3125 94.125 C0.13526082 91.05915355 0.29792259 89.23102584 -0.25 85.875 C-3.79010616 81.5549057 -7.23700602 79.80104294 -12.5078125 78.37890625 C-13.20786407 78.17536026 -13.90791565 77.97181427 -14.62918091 77.76210022 C-16.10078956 77.33472914 -17.57426 76.91372165 -19.04943848 76.49884033 C-21.83582153 75.70892462 -24.60539716 74.86832687 -27.37615967 74.02555847 C-30.20569967 73.16683576 -33.04012281 72.32482408 -35.87451172 71.48226929 C-38.20231931 70.78948895 -40.52887548 70.09259839 -42.85546875 69.39575195 C-51.81561744 66.72233192 -60.79797428 64.15871201 -69.8203125 61.703125 C-72.69348676 60.9128516 -75.56628684 60.12123004 -78.43902588 59.32937622 C-80.30224828 58.82106099 -82.16761395 58.32053314 -84.03509521 57.82809448 C-86.6539323 57.13732526 -89.26452331 56.42083776 -91.875 55.69921875 C-92.65046173 55.50261658 -93.42592346 55.3060144 -94.22488403 55.10345459 C-99.65820806 53.56393073 -102.20073464 51.68602195 -105.25 46.875 C-105.83349609 44.11425781 -105.83349609 44.11425781 -105.7734375 41.328125 C-105.76183594 40.31878906 -105.75023438 39.30945312 -105.73828125 38.26953125 C-105.70089844 37.23183594 -105.66351563 36.19414063 -105.625 35.125 C-105.61082031 34.07183594 -105.59664062 33.01867188 -105.58203125 31.93359375 C-105.43394317 24.24288635 -105.43394317 24.24288635 -104.25 21.875 C-99.68916786 22.45922549 -95.35509784 23.28223961 -90.92578125 24.51171875 C-89.74113281 24.83906006 -88.55648437 25.16640137 -87.3359375 25.50366211 C-86.09070313 25.85307861 -84.84546875 26.20249512 -83.5625 26.5625 C-82.26697245 26.92277059 -80.97139913 27.28287664 -79.67578125 27.64282227 C-71.19479662 30.00765492 -62.74279441 32.46358844 -54.3293457 35.05932617 C-50.65376524 36.18845229 -47.04730103 37.21951351 -43.25 37.875 C-43.683125 37.10929687 -43.683125 37.10929687 -44.125 36.328125 C-47.75716802 29.21512929 -48.41464378 22.44796488 -46.77734375 14.61328125 C-43.92187783 5.9100947 -38.43386563 0.47231883 -30.6171875 -3.99609375 C-20.1851263 -8.97111964 -9.23935643 -6.04111766 0 0 Z " fill="#FDFDFD" transform="translate(127.25,23.125)"/>
<path d="M0 0 C0.99 0.33 1.98 0.66 3 1 C3 1.66 3 2.32 3 3 C7.6057659 4.57565676 12.24984888 5.96744519 16.92578125 7.31640625 C19 8 19 8 20 9 C22.05066804 9.50351224 24.11569357 9.89772552 26.1875 10.3046875 C29.37393231 11.09244438 32.42676163 12.13372534 35.53320312 13.18847656 C39.7340141 14.57045357 43.99252699 15.74415305 48.25 16.9375 C54.27417457 18.63846827 60.27916335 20.37003138 66.25 22.25 C70.46428626 23.57138266 74.64674088 24.61522366 78.96875 25.5078125 C81.67304269 26.16308342 84.17167834 27.18039615 86.75 28.21484375 C90.53253254 29.53479 94.45065901 30.31461039 98.36328125 31.15625 C101.07541432 32.02413258 102.22675898 32.82127384 104 35 C100.06191381 37.62539079 96.69574701 37.28482616 92.12573242 37.27124023 C90.76427849 37.27908035 90.76427849 37.27908035 89.37532043 37.28707886 C87.40282612 37.29732615 85.43030471 37.30310053 83.45778465 37.30496025 C80.33470878 37.30861806 77.21195213 37.32532944 74.08894348 37.34571838 C65.20901426 37.40118229 56.32903747 37.43180166 47.44897461 37.45629883 C42.01838781 37.47218414 36.58802648 37.50241616 31.15755653 37.54106331 C29.0887625 37.55270751 27.01992811 37.55864361 24.9511013 37.55874443 C22.05464565 37.55893673 19.15881036 37.57722257 16.26245117 37.59936523 C15.40976654 37.59478806 14.55708191 37.59021088 13.67855835 37.585495 C8.63209421 37.64674912 5.49854478 38.50440909 1 41 C0.34 40.67 -0.32 40.34 -1 40 C4.61485824 35.29565931 8.53969714 34.84369013 15.6940918 34.79467773 C16.5821048 34.78477814 17.4701178 34.77487854 18.38504028 34.76467896 C21.32307256 34.73306711 24.26112101 34.70830771 27.19921875 34.68359375 C29.23517784 34.66302396 31.27113267 34.64202748 33.30708313 34.62062073 C38.66806585 34.56540271 44.02908709 34.5159922 49.39013672 34.46777344 C54.85973544 34.41755648 60.32927815 34.36187142 65.79882812 34.30664062 C76.53250425 34.19906233 87.26622898 34.09761659 98 34 C90.40000344 31.79050189 82.79979712 29.58172715 75.19935226 27.37377167 C71.66666043 26.34749025 68.13403016 25.3209981 64.6015625 24.29394531 C61.18302162 23.30003293 57.7643095 22.30671157 54.34547424 21.31381226 C52.97891945 20.91686533 51.61241355 20.51975005 50.24595642 20.12246704 C42.78611511 17.95395695 35.32225273 15.80165898 27.84570312 13.69140625 C26.54453373 13.3232885 25.24336589 12.95516524 23.94219971 12.58703613 C21.509563 11.90014317 19.07597353 11.21661255 16.64129639 10.5369873 C15.55987366 10.23151978 14.47845093 9.92605225 13.36425781 9.61132812 C12.42060364 9.3471106 11.47694946 9.08289307 10.50469971 8.81066895 C8.18626717 8.06028707 6.14024771 7.15616534 4 6 C4 5.34 4 4.68 4 4 C3.34 4 2.68 4 2 4 C1.34 2.68 0.68 1.36 0 0 Z " fill="#181818" transform="translate(16,77)"/>
<path d="M0 0 C2.8100346 1.79363911 4.50940468 3.01880935 6 6 C6.12243863 10.53022942 5.81830145 13.98332245 2.9375 17.5625 C-0.86745555 19.42449952 -3.84618294 19.95663666 -8 19 C-11.64184981 16.44295652 -12.77792202 14.77727291 -14 10.5 C-14 6.5736584 -13.42734133 5.03417666 -11 2 C-7.31502204 -0.45665197 -4.28028214 -0.70086491 0 0 Z " fill="#070707" transform="translate(194,59)"/>
<path d="M0 0 C3.9295493 0.92685276 5.41241975 2.29808529 8.00390625 5.47265625 C8.73149948 8.61809773 8.71003712 11.32448944 8.00390625 14.47265625 C6.12770012 16.97426443 4.76499322 18.09211277 2.00390625 19.47265625 C-4.93872799 20.15553831 -4.93872799 20.15553831 -8.99609375 17.53515625 C-11.32807388 13.96431168 -11.7387694 11.82759606 -11.47265625 7.6328125 C-10.15275916 1.65000026 -5.84909498 -0.43285523 0 0 Z " fill="#070707" transform="translate(109.99609375,35.52734375)"/>
<path d="M0 0 C4.95 0 9.9 0 15 0 C15 4.95 15 9.9 15 15 C10.05 15 5.1 15 0 15 C0 10.05 0 5.1 0 0 Z " fill="#F8F8F8" transform="translate(203,165)"/>
<path d="M0 0 C4.95 0 9.9 0 15 0 C15 4.95 15 9.9 15 15 C10.05 15 5.1 15 0 15 C0 10.05 0 5.1 0 0 Z " fill="#F7F7F7" transform="translate(158,165)"/>
<path d="M0 0 C4.95 0 9.9 0 15 0 C15 4.95 15 9.9 15 15 C10.05 15 5.1 15 0 15 C0 10.05 0 5.1 0 0 Z " fill="#F8F8F8" transform="translate(112,165)"/>
<path d="M0 0 C4.95 0 9.9 0 15 0 C15 4.95 15 9.9 15 15 C10.05 15 5.1 15 0 15 C0 10.05 0 5.1 0 0 Z " fill="#F6F6F6" transform="translate(21,165)"/>
<path d="M0 0 C4.95 0 9.9 0 15 0 C15.09765625 10.83984375 15.09765625 10.83984375 15 14 C14 15 14 15 10.83984375 15.09765625 C7.2265625 15.06510417 3.61328125 15.03255208 0 15 C0 10.05 0 5.1 0 0 Z " fill="#F7F7F7" transform="translate(67,165)"/>
<path d="M0 0 C0.66 0.33 1.32 0.66 2 1 C-3.60523001 6.07515796 -9.23225279 11.10995345 -15 16 C-12.7231795 9.29797453 -7.77784158 4.9927994 -2.125 0.9375 C-1.073125 0.4734375 -1.073125 0.4734375 0 0 Z " fill="#0C0C0D" transform="translate(90,12)"/>
<path d="M0 0 C0.66 0.33 1.32 0.66 2 1 C-1.63 4.63 -5.26 8.26 -9 12 C-9.66 11.34 -10.32 10.68 -11 10 C-7.84778899 5.58690458 -4.44536093 2.99206986 0 0 Z " fill="#0D0D0E" transform="translate(170,35)"/>
</svg>
